<mxfile host="app.diagrams.net" agent="Mozilla/5.0 (Windows NT 10.0; Win64; x64) AppleWebKit/537.36 (KHTML, like Gecko) Chrome/130.0.0.0 Safari/537.36" version="24.8.3">
  <diagram name="Page-1" id="8d8Rmc_8ezcmCZDhkm7n">
    <mxGraphModel dx="1216" dy="485" grid="1" gridSize="10" guides="1" tooltips="1" connect="1" arrows="1" fold="1" page="1" pageScale="1" pageWidth="850" pageHeight="1100" math="0" shadow="0">
      <root>
        <mxCell id="0" />
        <mxCell id="1" parent="0" />
        <mxCell id="tKCVClsIFE6OFfNpOI97-9" value="" style="ellipse;html=1;shape=startState;fillColor=#000000;strokeColor=#ff0000;" vertex="1" parent="1">
          <mxGeometry x="130" y="480" width="30" height="30" as="geometry" />
        </mxCell>
        <mxCell id="tKCVClsIFE6OFfNpOI97-10" value="" style="edgeStyle=orthogonalEdgeStyle;html=1;verticalAlign=bottom;endArrow=open;endSize=8;strokeColor=#ff0000;rounded=0;" edge="1" source="tKCVClsIFE6OFfNpOI97-9" parent="1">
          <mxGeometry relative="1" as="geometry">
            <mxPoint x="145" y="570" as="targetPoint" />
          </mxGeometry>
        </mxCell>
        <mxCell id="tKCVClsIFE6OFfNpOI97-11" value="Đăng nhập" style="rounded=1;whiteSpace=wrap;html=1;" vertex="1" parent="1">
          <mxGeometry x="85" y="570" width="120" height="60" as="geometry" />
        </mxCell>
        <mxCell id="tKCVClsIFE6OFfNpOI97-12" value="" style="endArrow=classic;html=1;rounded=0;exitX=0.5;exitY=1;exitDx=0;exitDy=0;" edge="1" parent="1" source="tKCVClsIFE6OFfNpOI97-11">
          <mxGeometry width="50" height="50" relative="1" as="geometry">
            <mxPoint x="400" y="700" as="sourcePoint" />
            <mxPoint x="145" y="660" as="targetPoint" />
          </mxGeometry>
        </mxCell>
        <mxCell id="tKCVClsIFE6OFfNpOI97-13" value="Kiểm tra&amp;nbsp;" style="rhombus;whiteSpace=wrap;html=1;fontColor=#000000;fillColor=#ffffc0;strokeColor=#ff0000;" vertex="1" parent="1">
          <mxGeometry x="85" y="660" width="120" height="40" as="geometry" />
        </mxCell>
        <mxCell id="tKCVClsIFE6OFfNpOI97-14" value="Chưa đăng nhập" style="edgeStyle=orthogonalEdgeStyle;html=1;align=left;verticalAlign=bottom;endArrow=open;endSize=8;strokeColor=#ff0000;rounded=0;" edge="1" source="tKCVClsIFE6OFfNpOI97-13" parent="1">
          <mxGeometry x="-1" relative="1" as="geometry">
            <mxPoint x="145" y="530" as="targetPoint" />
            <Array as="points">
              <mxPoint x="340" y="680" />
              <mxPoint x="340" y="530" />
            </Array>
          </mxGeometry>
        </mxCell>
        <mxCell id="tKCVClsIFE6OFfNpOI97-15" value="Đã đăng nhập" style="edgeStyle=orthogonalEdgeStyle;html=1;align=left;verticalAlign=top;endArrow=open;endSize=8;strokeColor=#ff0000;rounded=0;" edge="1" source="tKCVClsIFE6OFfNpOI97-13" parent="1">
          <mxGeometry x="-1" relative="1" as="geometry">
            <mxPoint x="145" y="740" as="targetPoint" />
            <Array as="points">
              <mxPoint x="145" y="720" />
            </Array>
          </mxGeometry>
        </mxCell>
        <mxCell id="tKCVClsIFE6OFfNpOI97-16" value="Tìm kiếm và Xem Sản phẩm" style="rounded=1;whiteSpace=wrap;html=1;" vertex="1" parent="1">
          <mxGeometry x="85" y="740" width="120" height="60" as="geometry" />
        </mxCell>
        <mxCell id="tKCVClsIFE6OFfNpOI97-17" value="" style="endArrow=classic;html=1;rounded=0;exitX=0.5;exitY=1;exitDx=0;exitDy=0;" edge="1" parent="1">
          <mxGeometry width="50" height="50" relative="1" as="geometry">
            <mxPoint x="144.29" y="800" as="sourcePoint" />
            <mxPoint x="144.29" y="830" as="targetPoint" />
          </mxGeometry>
        </mxCell>
        <mxCell id="tKCVClsIFE6OFfNpOI97-19" style="edgeStyle=orthogonalEdgeStyle;rounded=0;orthogonalLoop=1;jettySize=auto;html=1;strokeColor=#FF002B;" edge="1" parent="1" source="tKCVClsIFE6OFfNpOI97-18" target="tKCVClsIFE6OFfNpOI97-16">
          <mxGeometry relative="1" as="geometry">
            <mxPoint x="300" y="780" as="targetPoint" />
            <Array as="points">
              <mxPoint x="320" y="850" />
              <mxPoint x="320" y="780" />
            </Array>
          </mxGeometry>
        </mxCell>
        <mxCell id="tKCVClsIFE6OFfNpOI97-21" style="edgeStyle=orthogonalEdgeStyle;rounded=0;orthogonalLoop=1;jettySize=auto;html=1;strokeColor=#FF002B;" edge="1" parent="1" source="tKCVClsIFE6OFfNpOI97-18">
          <mxGeometry relative="1" as="geometry">
            <mxPoint x="145" y="900" as="targetPoint" />
          </mxGeometry>
        </mxCell>
        <mxCell id="tKCVClsIFE6OFfNpOI97-18" value="Thêm vào giỏ" style="rhombus;whiteSpace=wrap;html=1;fontColor=#000000;fillColor=#ffffc0;strokeColor=#ff0000;" vertex="1" parent="1">
          <mxGeometry x="85" y="830" width="120" height="40" as="geometry" />
        </mxCell>
        <mxCell id="tKCVClsIFE6OFfNpOI97-20" value="Không thêm" style="text;html=1;align=center;verticalAlign=middle;resizable=0;points=[];autosize=1;strokeColor=none;fillColor=none;" vertex="1" parent="1">
          <mxGeometry x="195" y="818" width="90" height="30" as="geometry" />
        </mxCell>
        <mxCell id="tKCVClsIFE6OFfNpOI97-25" style="edgeStyle=orthogonalEdgeStyle;rounded=0;orthogonalLoop=1;jettySize=auto;html=1;" edge="1" parent="1" source="tKCVClsIFE6OFfNpOI97-23">
          <mxGeometry relative="1" as="geometry">
            <mxPoint x="260" y="930" as="targetPoint" />
          </mxGeometry>
        </mxCell>
        <mxCell id="tKCVClsIFE6OFfNpOI97-23" value="Thêm vào giỏ" style="rounded=1;whiteSpace=wrap;html=1;" vertex="1" parent="1">
          <mxGeometry x="85" y="900" width="120" height="60" as="geometry" />
        </mxCell>
        <mxCell id="tKCVClsIFE6OFfNpOI97-24" value="Thêm" style="text;html=1;align=center;verticalAlign=middle;resizable=0;points=[];autosize=1;strokeColor=none;fillColor=none;" vertex="1" parent="1">
          <mxGeometry x="160" y="870" width="50" height="30" as="geometry" />
        </mxCell>
        <mxCell id="tKCVClsIFE6OFfNpOI97-27" style="edgeStyle=orthogonalEdgeStyle;rounded=0;orthogonalLoop=1;jettySize=auto;html=1;entryX=0.991;entryY=0.333;entryDx=0;entryDy=0;entryPerimeter=0;strokeColor=#FF002B;exitX=0.5;exitY=0;exitDx=0;exitDy=0;" edge="1" parent="1" source="tKCVClsIFE6OFfNpOI97-26" target="tKCVClsIFE6OFfNpOI97-16">
          <mxGeometry relative="1" as="geometry">
            <mxPoint x="210" y="750" as="targetPoint" />
            <Array as="points">
              <mxPoint x="320" y="880" />
              <mxPoint x="360" y="880" />
              <mxPoint x="360" y="760" />
            </Array>
          </mxGeometry>
        </mxCell>
        <mxCell id="tKCVClsIFE6OFfNpOI97-28" value="Có" style="edgeLabel;html=1;align=center;verticalAlign=middle;resizable=0;points=[];" vertex="1" connectable="0" parent="tKCVClsIFE6OFfNpOI97-27">
          <mxGeometry x="-0.8925" y="10" relative="1" as="geometry">
            <mxPoint as="offset" />
          </mxGeometry>
        </mxCell>
        <mxCell id="tKCVClsIFE6OFfNpOI97-29" style="edgeStyle=orthogonalEdgeStyle;rounded=0;orthogonalLoop=1;jettySize=auto;html=1;strokeColor=#FF002B;" edge="1" parent="1" source="tKCVClsIFE6OFfNpOI97-26">
          <mxGeometry relative="1" as="geometry">
            <mxPoint x="430" y="930" as="targetPoint" />
          </mxGeometry>
        </mxCell>
        <mxCell id="tKCVClsIFE6OFfNpOI97-26" value="Thêm sp khác" style="rhombus;whiteSpace=wrap;html=1;fontColor=#000000;fillColor=#ffffc0;strokeColor=#ff0000;" vertex="1" parent="1">
          <mxGeometry x="260" y="910" width="120" height="40" as="geometry" />
        </mxCell>
        <mxCell id="tKCVClsIFE6OFfNpOI97-32" style="edgeStyle=orthogonalEdgeStyle;rounded=0;orthogonalLoop=1;jettySize=auto;html=1;" edge="1" parent="1" source="tKCVClsIFE6OFfNpOI97-30">
          <mxGeometry relative="1" as="geometry">
            <mxPoint x="490" y="850" as="targetPoint" />
          </mxGeometry>
        </mxCell>
        <mxCell id="tKCVClsIFE6OFfNpOI97-30" value="Xem chi tiết giỏ hàng" style="rounded=1;whiteSpace=wrap;html=1;" vertex="1" parent="1">
          <mxGeometry x="430" y="900" width="120" height="60" as="geometry" />
        </mxCell>
        <mxCell id="tKCVClsIFE6OFfNpOI97-31" value="Không" style="text;html=1;align=center;verticalAlign=middle;resizable=0;points=[];autosize=1;strokeColor=none;fillColor=none;" vertex="1" parent="1">
          <mxGeometry x="360" y="898" width="60" height="30" as="geometry" />
        </mxCell>
        <mxCell id="tKCVClsIFE6OFfNpOI97-34" style="edgeStyle=orthogonalEdgeStyle;rounded=0;orthogonalLoop=1;jettySize=auto;html=1;" edge="1" parent="1" source="tKCVClsIFE6OFfNpOI97-33">
          <mxGeometry relative="1" as="geometry">
            <mxPoint x="490" y="750" as="targetPoint" />
          </mxGeometry>
        </mxCell>
        <mxCell id="tKCVClsIFE6OFfNpOI97-33" value="Đặt hàng" style="rounded=1;whiteSpace=wrap;html=1;" vertex="1" parent="1">
          <mxGeometry x="430" y="788" width="120" height="60" as="geometry" />
        </mxCell>
        <mxCell id="tKCVClsIFE6OFfNpOI97-37" style="edgeStyle=orthogonalEdgeStyle;rounded=0;orthogonalLoop=1;jettySize=auto;html=1;strokeColor=#FF002B;" edge="1" parent="1" source="tKCVClsIFE6OFfNpOI97-35" target="tKCVClsIFE6OFfNpOI97-36">
          <mxGeometry relative="1" as="geometry" />
        </mxCell>
        <mxCell id="tKCVClsIFE6OFfNpOI97-35" value="Lưu hóa đơn" style="rounded=1;whiteSpace=wrap;html=1;" vertex="1" parent="1">
          <mxGeometry x="430" y="690" width="120" height="60" as="geometry" />
        </mxCell>
        <mxCell id="tKCVClsIFE6OFfNpOI97-36" value="" style="ellipse;html=1;shape=endState;fillColor=#000000;strokeColor=#ff0000;" vertex="1" parent="1">
          <mxGeometry x="475" y="600" width="30" height="30" as="geometry" />
        </mxCell>
      </root>
    </mxGraphModel>
  </diagram>
</mxfile>
